<?xml version="1.0" encoding="utf-8"?>
<!-- Generator: Adobe Illustrator 22.1.0, SVG Export Plug-In . SVG Version: 6.00 Build 0)  -->
<svg version="1.1" id="Layer_1" xmlns="http://www.w3.org/2000/svg" xmlns:xlink="http://www.w3.org/1999/xlink" x="0px" y="0px"
	 viewBox="0 0 723 15" style="enable-background:new 0 0 723 15;" xml:space="preserve">
<style type="text/css">
	.st0{fill:#1976D2;}
	.st1{fill:#E53935;}
</style>
<g>
	<path class="st0" d="M26.9,0h6.5c0.3,0,0.5,0.2,0.5,0.5c0,0.1,0,0.2-0.1,0.3L22.8,14.6C22.6,14.9,22.3,15,22,15h-6.5
		c-0.3,0-0.5-0.2-0.5-0.5c0-0.1,0-0.2,0.1-0.3L26.2,0.4C26.3,0.1,26.6,0,26.9,0z"/>
	<path class="st0" d="M266.9,0h6.5c0.3,0,0.5,0.2,0.5,0.5c0,0.1,0,0.2-0.1,0.3l-11,13.8c-0.2,0.2-0.5,0.4-0.8,0.4h-6.5
		c-0.3,0-0.5-0.2-0.5-0.5c0-0.1,0-0.2,0.1-0.3l11-13.8C266.3,0.1,266.6,0,266.9,0z"/>
	<path class="st0" d="M505.9,0h6.5c0.3,0,0.5,0.2,0.5,0.5c0,0.1,0,0.2-0.1,0.3l-11,13.8c-0.2,0.2-0.5,0.4-0.8,0.4h-6.5
		c-0.3,0-0.5-0.2-0.5-0.5c0-0.1,0-0.2,0.1-0.3l11.1-13.8C505.3,0.1,505.6,0,505.9,0z"/>
	<path class="st0" d="M146.9,0h6.5c0.3,0,0.5,0.2,0.5,0.5c0,0.1,0,0.2-0.1,0.3l-11.1,13.8c-0.2,0.2-0.5,0.4-0.8,0.4h-6.5
		c-0.3,0-0.5-0.2-0.5-0.5c0-0.1,0-0.2,0.1-0.3l11.1-13.8C146.3,0.1,146.6,0,146.9,0z"/>
	<path class="st0" d="M386.9,0h6.5c0.3,0,0.5,0.2,0.5,0.5c0,0.1,0,0.2-0.1,0.3l-11,13.8c-0.2,0.2-0.5,0.4-0.8,0.4h-6.5
		c-0.3,0-0.5-0.2-0.5-0.5c0-0.1,0-0.2,0.1-0.3l11-13.8C386.3,0.1,386.6,0,386.9,0z"/>
	<path class="st0" d="M625.9,0h6.5c0.3,0,0.5,0.2,0.5,0.5c0,0.1,0,0.2-0.1,0.3l-11,13.8c-0.2,0.2-0.5,0.4-0.8,0.4h-6.5
		c-0.3,0-0.5-0.2-0.5-0.5c0-0.1,0-0.2,0.1-0.3l11-13.8C625.3,0.1,625.6,0,625.9,0z"/>
	<path class="st0" d="M86.9,0h6.5c0.3,0,0.5,0.2,0.5,0.5c0,0.1,0,0.2-0.1,0.3L82.8,14.6C82.6,14.9,82.3,15,82,15h-6.5
		c-0.3,0-0.5-0.2-0.5-0.5c0-0.1,0-0.2,0.1-0.3L86.2,0.4C86.3,0.1,86.6,0,86.9,0z"/>
	<path class="st0" d="M326.9,0h6.5c0.3,0,0.5,0.2,0.5,0.5c0,0.1,0,0.2-0.1,0.3l-11,13.8c-0.2,0.2-0.5,0.4-0.8,0.4h-6.5
		c-0.3,0-0.5-0.2-0.5-0.5c0-0.1,0-0.2,0.1-0.3l11-13.8C326.3,0.1,326.6,0,326.9,0z"/>
	<path class="st0" d="M565.9,0h6.5c0.3,0,0.5,0.2,0.5,0.5c0,0.1,0,0.2-0.1,0.3l-11,13.8c-0.2,0.2-0.5,0.4-0.8,0.4h-6.5
		c-0.3,0-0.5-0.2-0.5-0.5c0-0.1,0-0.2,0.1-0.3l11-13.8C565.3,0.1,565.6,0,565.9,0z"/>
	<path class="st0" d="M206.9,0h6.5c0.3,0,0.5,0.2,0.5,0.5c0,0.1,0,0.2-0.1,0.3l-11.1,13.8c-0.2,0.2-0.5,0.4-0.8,0.4h-6.5
		c-0.3,0-0.5-0.2-0.5-0.5c0-0.1,0-0.2,0.1-0.3l11.1-13.8C206.3,0.1,206.6,0,206.9,0z"/>
	<path class="st0" d="M446.9,0h6.5c0.3,0,0.5,0.2,0.5,0.5c0,0.1,0,0.2-0.1,0.3l-11,13.8c-0.2,0.2-0.5,0.4-0.8,0.4h-6.5
		c-0.3,0-0.5-0.2-0.5-0.5c0-0.1,0-0.2,0.1-0.3l11-13.8C446.3,0.1,446.6,0,446.9,0z"/>
	<path class="st0" d="M685.9,0h6.5c0.3,0,0.5,0.2,0.5,0.5c0,0.1,0,0.2-0.1,0.3l-11,13.8c-0.2,0.2-0.5,0.4-0.8,0.4h-6.5
		c-0.3,0-0.5-0.2-0.5-0.5c0-0.1,0-0.2,0.1-0.3l11-13.8C685.3,0.1,685.6,0,685.9,0z"/>
	<path class="st0" d="M56.9,0h6.5c0.3,0,0.5,0.2,0.5,0.5c0,0.1,0,0.2-0.1,0.3L52.8,14.6C52.6,14.9,52.3,15,52,15h-6.5
		c-0.3,0-0.5-0.2-0.5-0.5c0-0.1,0-0.2,0.1-0.3l11-13.8C56.3,0.1,56.6,0,56.9,0z"/>
	<path class="st0" d="M296.9,0h6.5c0.3,0,0.5,0.2,0.5,0.5c0,0.1,0,0.2-0.1,0.3l-11,13.8c-0.2,0.2-0.5,0.4-0.8,0.4h-6.5
		c-0.3,0-0.5-0.2-0.5-0.5c0-0.1,0-0.2,0.1-0.3l11-13.8C296.3,0.1,296.6,0,296.9,0z"/>
	<path class="st0" d="M535.9,0h6.5c0.3,0,0.5,0.2,0.5,0.5c0,0.1,0,0.2-0.1,0.3l-11,13.8c-0.2,0.2-0.5,0.4-0.8,0.4h-6.5
		c-0.3,0-0.5-0.2-0.5-0.5c0-0.1,0-0.2,0.1-0.3l11-13.8C535.3,0.1,535.6,0,535.9,0z"/>
	<path class="st0" d="M176.9,0h6.5c0.3,0,0.5,0.2,0.5,0.5c0,0.1,0,0.2-0.1,0.3l-11.1,13.8c-0.2,0.2-0.5,0.4-0.8,0.4h-6.5
		c-0.3,0-0.5-0.2-0.5-0.5c0-0.1,0-0.2,0.1-0.3l11.1-13.8C176.3,0.1,176.6,0,176.9,0z"/>
	<path class="st0" d="M416.9,0h6.5c0.3,0,0.5,0.2,0.5,0.5c0,0.1,0,0.2-0.1,0.3l-11,13.8c-0.2,0.2-0.5,0.4-0.8,0.4h-6.5
		c-0.3,0-0.5-0.2-0.5-0.5c0-0.1,0-0.2,0.1-0.3l11-13.8C416.3,0.1,416.6,0,416.9,0z"/>
	<path class="st0" d="M655.9,0h6.5c0.3,0,0.5,0.2,0.5,0.5c0,0.1,0,0.2-0.1,0.3l-11,13.8c-0.2,0.2-0.5,0.4-0.8,0.4h-6.5
		c-0.3,0-0.5-0.2-0.5-0.5c0-0.1,0-0.2,0.1-0.3l11-13.8C655.3,0.1,655.6,0,655.9,0z"/>
	<path class="st0" d="M116.9,0h6.5c0.3,0,0.5,0.2,0.5,0.5c0,0.1,0,0.2-0.1,0.3l-11.1,13.8c-0.2,0.2-0.5,0.4-0.8,0.4h-6.5
		c-0.3,0-0.5-0.2-0.5-0.5c0-0.1,0-0.2,0.1-0.3l11.1-13.8C116.3,0.1,116.6,0,116.9,0z"/>
	<path class="st0" d="M356.9,0h6.5c0.3,0,0.5,0.2,0.5,0.5c0,0.1,0,0.2-0.1,0.3l-11,13.8c-0.2,0.2-0.5,0.4-0.8,0.4h-6.5
		c-0.3,0-0.5-0.2-0.5-0.5c0-0.1,0-0.2,0.1-0.3l11-13.8C356.3,0.1,356.6,0,356.9,0z"/>
	<path class="st0" d="M595.9,0h6.5c0.3,0,0.5,0.2,0.5,0.5c0,0.1,0,0.2-0.1,0.3l-11,13.8c-0.2,0.2-0.5,0.4-0.8,0.4h-6.5
		c-0.3,0-0.5-0.2-0.5-0.5c0-0.1,0-0.2,0.1-0.3l11-13.8C595.3,0.1,595.6,0,595.9,0z"/>
	<path class="st0" d="M236.9,0h6.5c0.3,0,0.5,0.2,0.5,0.5c0,0.1,0,0.2-0.1,0.3l-11.1,13.8c-0.2,0.2-0.5,0.4-0.8,0.4h-6.5
		c-0.3,0-0.5-0.2-0.5-0.5c0-0.1,0-0.2,0.1-0.3l11.1-13.8C236.3,0.1,236.6,0,236.9,0z"/>
	<path class="st0" d="M476.9,0h6.5c0.3,0,0.5,0.2,0.5,0.5c0,0.1,0,0.2-0.1,0.3l-11,13.8c-0.2,0.2-0.5,0.4-0.8,0.4h-6.5
		c-0.3,0-0.5-0.2-0.5-0.5c0-0.1,0-0.2,0.1-0.3l11-13.8C476.3,0.1,476.6,0,476.9,0z"/>
	<path class="st0" d="M715.9,0h6.5c0.3,0,0.5,0.2,0.5,0.5c0,0.1,0,0.2-0.1,0.3l-11,13.8c-0.2,0.2-0.5,0.4-0.8,0.4h-6.5
		c-0.3,0-0.5-0.2-0.5-0.5c0-0.1,0-0.2,0.1-0.3l11-13.8C715.3,0.1,715.6,0,715.9,0z"/>
</g>
<g>
	<path class="st1" d="M11.9,0h6.5c0.3,0,0.5,0.2,0.5,0.5c0,0.1,0,0.2-0.1,0.3L7.8,14.6C7.6,14.9,7.3,15,7,15H0.5
		C0.2,15,0,14.8,0,14.5c0-0.1,0-0.2,0.1-0.3L11.2,0.4C11.3,0.1,11.6,0,11.9,0z"/>
	<path class="st1" d="M251.9,0h6.5c0.3,0,0.5,0.2,0.5,0.5c0,0.1,0,0.2-0.1,0.3l-11.1,13.8c-0.2,0.2-0.5,0.4-0.8,0.4h-6.5
		c-0.3,0-0.5-0.2-0.5-0.5c0-0.1,0-0.2,0.1-0.3l11-13.8C251.3,0.1,251.6,0,251.9,0z"/>
	<path class="st1" d="M490.9,0h6.5c0.3,0,0.5,0.2,0.5,0.5c0,0.1,0,0.2-0.1,0.3l-11,13.8c-0.2,0.2-0.5,0.4-0.8,0.4h-6.5
		c-0.3,0-0.5-0.2-0.5-0.5c0-0.1,0-0.2,0.1-0.3l11-13.8C490.3,0.1,490.6,0,490.9,0z"/>
	<path class="st1" d="M131.9,0h6.5c0.3,0,0.5,0.2,0.5,0.5c0,0.1,0,0.2-0.1,0.3l-11.1,13.8c-0.2,0.2-0.5,0.4-0.8,0.4h-6.5
		c-0.3,0-0.5-0.2-0.5-0.5c0-0.1,0-0.2,0.1-0.3l11.1-13.8C131.3,0.1,131.6,0,131.9,0z"/>
	<path class="st1" d="M371.9,0h6.5c0.3,0,0.5,0.2,0.5,0.5c0,0.1,0,0.2-0.1,0.3l-11,13.8c-0.2,0.2-0.5,0.4-0.8,0.4h-6.5
		c-0.3,0-0.5-0.2-0.5-0.5c0-0.1,0-0.2,0.1-0.3l11-13.8C371.3,0.1,371.6,0,371.9,0z"/>
	<path class="st1" d="M610.9,0h6.5c0.3,0,0.5,0.2,0.5,0.5c0,0.1,0,0.2-0.1,0.3l-11,13.8c-0.2,0.2-0.5,0.4-0.8,0.4h-6.5
		c-0.3,0-0.5-0.2-0.5-0.5c0-0.1,0-0.2,0.1-0.3l11-13.8C610.3,0.1,610.6,0,610.9,0z"/>
	<path class="st1" d="M71.9,0h6.5c0.3,0,0.5,0.2,0.5,0.5c0,0.1,0,0.2-0.1,0.3L67.8,14.6C67.6,14.9,67.3,15,67,15h-6.5
		c-0.3,0-0.5-0.2-0.5-0.5c0-0.1,0-0.2,0.1-0.3L71.2,0.4C71.3,0.1,71.6,0,71.9,0z"/>
	<path class="st1" d="M311.9,0h6.5c0.3,0,0.5,0.2,0.5,0.5c0,0.1,0,0.2-0.1,0.3l-11,13.8c-0.2,0.2-0.5,0.4-0.8,0.4h-6.5
		c-0.3,0-0.5-0.2-0.5-0.5c0-0.1,0-0.2,0.1-0.3l11-13.8C311.3,0.1,311.6,0,311.9,0z"/>
	<path class="st1" d="M550.9,0h6.5c0.3,0,0.5,0.2,0.5,0.5c0,0.1,0,0.2-0.1,0.3l-11,13.8c-0.2,0.2-0.5,0.4-0.8,0.4h-6.5
		c-0.3,0-0.5-0.2-0.5-0.5c0-0.1,0-0.2,0.1-0.3l11-13.8C550.3,0.1,550.6,0,550.9,0z"/>
	<path class="st1" d="M191.9,0h6.5c0.3,0,0.5,0.2,0.5,0.5c0,0.1,0,0.2-0.1,0.3l-11.1,13.8c-0.2,0.2-0.5,0.4-0.8,0.4h-6.5
		c-0.3,0-0.5-0.2-0.5-0.5c0-0.1,0-0.2,0.1-0.3l11.1-13.8C191.3,0.1,191.6,0,191.9,0z"/>
	<path class="st1" d="M431.9,0h6.5c0.3,0,0.5,0.2,0.5,0.5c0,0.1,0,0.2-0.1,0.3l-11,13.8c-0.2,0.2-0.5,0.4-0.8,0.4h-6.5
		c-0.3,0-0.5-0.2-0.5-0.5c0-0.1,0-0.2,0.1-0.3l11-13.8C431.3,0.1,431.6,0,431.9,0z"/>
	<path class="st1" d="M670.9,0h6.5c0.3,0,0.5,0.2,0.5,0.5c0,0.1,0,0.2-0.1,0.3l-11,13.8c-0.2,0.2-0.5,0.4-0.8,0.4h-6.5
		c-0.3,0-0.5-0.2-0.5-0.5c0-0.1,0-0.2,0.1-0.3l11-13.8C670.3,0.1,670.6,0,670.9,0z"/>
	<path class="st1" d="M41.9,0h6.5c0.3,0,0.5,0.2,0.5,0.5c0,0.1,0,0.2-0.1,0.3L37.8,14.6C37.6,14.9,37.3,15,37,15h-6.5
		c-0.3,0-0.5-0.2-0.5-0.5c0-0.1,0-0.2,0.1-0.3l11-13.8C41.3,0.1,41.6,0,41.9,0z"/>
	<path class="st1" d="M281.9,0h6.5c0.3,0,0.5,0.2,0.5,0.5c0,0.1,0,0.2-0.1,0.3l-11,13.8c-0.2,0.2-0.5,0.4-0.8,0.4h-6.5
		c-0.3,0-0.5-0.2-0.5-0.5c0-0.1,0-0.2,0.1-0.3l11-13.8C281.3,0.1,281.6,0,281.9,0z"/>
	<path class="st1" d="M520.9,0h6.5c0.3,0,0.5,0.2,0.5,0.5c0,0.1,0,0.2-0.1,0.3l-11,13.8c-0.2,0.2-0.5,0.4-0.8,0.4h-6.5
		c-0.3,0-0.5-0.2-0.5-0.5c0-0.1,0-0.2,0.1-0.3l11.1-13.8C520.3,0.1,520.6,0,520.9,0z"/>
	<path class="st1" d="M161.9,0h6.5c0.3,0,0.5,0.2,0.5,0.5c0,0.1,0,0.2-0.1,0.3l-11.1,13.8c-0.2,0.2-0.5,0.4-0.8,0.4h-6.5
		c-0.3,0-0.5-0.2-0.5-0.5c0-0.1,0-0.2,0.1-0.3l11.1-13.8C161.3,0.1,161.6,0,161.9,0z"/>
	<path class="st1" d="M401.9,0h6.5c0.3,0,0.5,0.2,0.5,0.5c0,0.1,0,0.2-0.1,0.3l-11,13.8c-0.2,0.2-0.5,0.4-0.8,0.4h-6.5
		c-0.3,0-0.5-0.2-0.5-0.5c0-0.1,0-0.2,0.1-0.3l11-13.8C401.3,0.1,401.6,0,401.9,0z"/>
	<path class="st1" d="M640.9,0h6.5c0.3,0,0.5,0.2,0.5,0.5c0,0.1,0,0.2-0.1,0.3l-11,13.8c-0.2,0.2-0.5,0.4-0.8,0.4h-6.5
		c-0.3,0-0.5-0.2-0.5-0.5c0-0.1,0-0.2,0.1-0.3l11-13.8C640.3,0.1,640.6,0,640.9,0z"/>
	<path class="st1" d="M101.9,0h6.5c0.3,0,0.5,0.2,0.5,0.5c0,0.1,0,0.2-0.1,0.3L97.8,14.6C97.6,14.9,97.3,15,97,15h-6.5
		c-0.3,0-0.5-0.2-0.5-0.5c0-0.1,0-0.2,0.1-0.3l11.1-13.8C101.3,0.1,101.6,0,101.9,0z"/>
	<path class="st1" d="M341.9,0h6.5c0.3,0,0.5,0.2,0.5,0.5c0,0.1,0,0.2-0.1,0.3l-11,13.8c-0.2,0.2-0.5,0.4-0.8,0.4h-6.5
		c-0.3,0-0.5-0.2-0.5-0.5c0-0.1,0-0.2,0.1-0.3l11-13.8C341.3,0.1,341.6,0,341.9,0z"/>
	<path class="st1" d="M580.9,0h6.5c0.3,0,0.5,0.2,0.5,0.5c0,0.1,0,0.2-0.1,0.3l-11,13.8c-0.2,0.2-0.5,0.4-0.8,0.4h-6.5
		c-0.3,0-0.5-0.2-0.5-0.5c0-0.1,0-0.2,0.1-0.3l11-13.8C580.3,0.1,580.6,0,580.9,0z"/>
	<path class="st1" d="M221.9,0h6.5c0.3,0,0.5,0.2,0.5,0.5c0,0.1,0,0.2-0.1,0.3l-11.1,13.8c-0.2,0.2-0.5,0.4-0.8,0.4h-6.5
		c-0.3,0-0.5-0.2-0.5-0.5c0-0.1,0-0.2,0.1-0.3l11.1-13.8C221.3,0.1,221.6,0,221.9,0z"/>
	<path class="st1" d="M461.9,0h6.5c0.3,0,0.5,0.2,0.5,0.5c0,0.1,0,0.2-0.1,0.3l-11,13.8c-0.2,0.2-0.5,0.4-0.8,0.4h-6.5
		c-0.3,0-0.5-0.2-0.5-0.5c0-0.1,0-0.2,0.1-0.3l11-13.8C461.3,0.1,461.6,0,461.9,0z"/>
	<path class="st1" d="M700.9,0h6.5c0.3,0,0.5,0.2,0.5,0.5c0,0.1,0,0.2-0.1,0.3l-11,13.8c-0.2,0.2-0.5,0.4-0.8,0.4h-6.5
		c-0.3,0-0.5-0.2-0.5-0.5c0-0.1,0-0.2,0.1-0.3l11-13.8C700.3,0.1,700.6,0,700.9,0z"/>
</g>
</svg>
